<?xml version="1.0" encoding="iso-8859-1"?>
<!-- Generator: Adobe Illustrator 19.0.0, SVG Export Plug-In . SVG Version: 6.00 Build 0)  -->
<svg version="1.1" id="Layer_1" xmlns="http://www.w3.org/2000/svg" xmlns:xlink="http://www.w3.org/1999/xlink" x="0px" y="0px"
	 viewBox="0 0 469.333 469.333" style="enable-background:new 0 0 469.333 469.333;" xml:space="preserve">
<g>
	<g>
		<path d="M426.667,21.333h-87.298C334.951,8.944,323.221,0,309.333,0C301.108,0,293.674,3.206,288,8.323
			C282.326,3.206,274.892,0,266.667,0s-15.659,3.206-21.333,8.323C239.659,3.206,232.225,0,224,0
			c-13.888,0-25.617,8.944-30.035,21.333h-55.298h-96C19.135,21.333,0,40.469,0,64v341.333C0,428.865,19.135,448,42.667,448h96
			h55.298c4.418,12.389,16.147,21.333,30.035,21.333c8.225,0,15.659-3.206,21.333-8.323c5.674,5.117,13.108,8.323,21.333,8.323
			s15.659-3.206,21.333-8.323c5.674,5.117,13.108,8.323,21.333,8.323c13.888,0,25.617-8.944,30.035-21.333h87.298
			c23.531,0,42.667-19.135,42.667-42.667V64C469.333,40.469,450.198,21.333,426.667,21.333z M128,426.667H42.667
			c-11.76,0-21.333-9.573-21.333-21.333v-10.667H64c0,5.896,4.771,10.667,10.667,10.667H128V426.667z M128,362.667H74.667
			c-5.896,0-10.667,4.771-10.667,10.667H21.333v-42.667H64c0,5.896,4.771,10.667,10.667,10.667H128V362.667z M128,298.667H74.667
			c-5.896,0-10.667,4.771-10.667,10.667H21.333v-42.667H64c0,5.896,4.771,10.667,10.667,10.667H128V298.667z M128,234.667H74.667
			c-5.896,0-10.667,4.771-10.667,10.667H21.333v-32H128V234.667z M128,192H21.333v-32H64c0,5.896,4.771,10.667,10.667,10.667H128
			V192z M128,128H74.667C68.771,128,64,132.771,64,138.667H21.333V96H64c0,5.896,4.771,10.667,10.667,10.667H128V128z M128,64
			H74.667C68.771,64,64,68.771,64,74.667H21.333V64c0-11.76,9.573-21.333,21.333-21.333H128V64z M234.667,437.333
			c0,5.885-4.781,10.667-10.667,10.667c-5.885,0-10.667-4.781-10.667-10.667V32c0-5.885,4.781-10.667,10.667-10.667
			c5.885,0,10.667,4.781,10.667,10.667V437.333z M277.333,437.333c0,5.885-4.781,10.667-10.667,10.667S256,443.219,256,437.333V32
			c0-5.885,4.781-10.667,10.667-10.667S277.333,26.115,277.333,32V437.333z M320,437.333c0,5.885-4.781,10.667-10.667,10.667
			c-5.885,0-10.667-4.781-10.667-10.667V32c0-5.885,4.781-10.667,10.667-10.667C315.219,21.333,320,26.115,320,32V437.333z
			 M362.667,362.667c-11.76,0-21.333-9.573-21.333-21.333S350.906,320,362.667,320c11.76,0,21.333,9.573,21.333,21.333
			S374.427,362.667,362.667,362.667z M362.667,277.333c-11.76,0-21.333-9.573-21.333-21.333c0-11.76,9.573-21.333,21.333-21.333
			c11.76,0,21.333,9.573,21.333,21.333C384,267.76,374.427,277.333,362.667,277.333z M362.667,192
			c-11.76,0-21.333-9.573-21.333-21.333s9.573-21.333,21.333-21.333c11.76,0,21.333,9.573,21.333,21.333S374.427,192,362.667,192z
			 M362.667,106.667c-11.76,0-21.333-9.573-21.333-21.333c0-11.76,9.573-21.333,21.333-21.333C374.427,64,384,73.573,384,85.333
			C384,97.094,374.427,106.667,362.667,106.667z M426.667,405.333c-11.76,0-21.333-9.573-21.333-21.333
			c0-11.76,9.573-21.333,21.333-21.333c11.76,0,21.333,9.573,21.333,21.333C448,395.76,438.427,405.333,426.667,405.333z
			 M426.667,320c-11.76,0-21.333-9.573-21.333-21.333s9.573-21.333,21.333-21.333c11.76,0,21.333,9.573,21.333,21.333
			S438.427,320,426.667,320z M426.667,234.667c-11.76,0-21.333-9.573-21.333-21.333c0-11.76,9.573-21.333,21.333-21.333
			c11.76,0,21.333,9.573,21.333,21.333C448,225.094,438.427,234.667,426.667,234.667z M426.667,149.333
			c-11.76,0-21.333-9.573-21.333-21.333c0-11.76,9.573-21.333,21.333-21.333c11.76,0,21.333,9.573,21.333,21.333
			C448,139.76,438.427,149.333,426.667,149.333z"/>
	</g>
</g>
<g>
</g>
<g>
</g>
<g>
</g>
<g>
</g>
<g>
</g>
<g>
</g>
<g>
</g>
<g>
</g>
<g>
</g>
<g>
</g>
<g>
</g>
<g>
</g>
<g>
</g>
<g>
</g>
<g>
</g>
</svg>
