<?xml version="1.0" encoding="iso-8859-1"?>
<!-- Generator: Adobe Illustrator 19.0.0, SVG Export Plug-In . SVG Version: 6.00 Build 0)  -->
<svg version="1.1" id="Layer_1" xmlns="http://www.w3.org/2000/svg" xmlns:xlink="http://www.w3.org/1999/xlink" x="0px" y="0px"
	 viewBox="0 0 469.341 469.341" style="enable-background:new 0 0 469.341 469.341;" xml:space="preserve">
<g>
	<g>
		<path d="M466.212,35.133l-32-32c-3.396-3.417-8.656-4.115-12.833-1.719l-74.667,42.667c-3.323,1.896-5.375,5.438-5.375,9.26
			v16.917l-71.469,71.469c-15.771-8.979-31.479-13.698-45.865-13.719c-50.229,0-62.646,30.875-71.708,53.417
			c-8.427,20.969-13.813,31.906-34.958,31.917c-74.563,0-117.333,38.875-117.333,106.667c0,71.177,78.156,149.333,149.333,149.333
			c67.792,0,106.667-42.771,106.667-117.333c0-21.146,10.938-26.531,31.896-34.958c22.542-9.063,53.417-21.479,53.417-71.708
			c0-14.365-4.708-30.083-13.698-45.865l71.469-71.469h16.917c3.823,0,7.365-2.052,9.26-5.375l42.667-74.667
			C470.316,43.789,469.618,38.529,466.212,35.133z M146.212,380.883c-2.083,2.083-4.813,3.125-7.542,3.125s-5.458-1.042-7.542-3.125
			l-42.667-42.667c-4.167-4.167-4.167-10.917,0-15.083c4.167-4.167,10.917-4.167,15.083,0l42.667,42.667
			C150.379,369.966,150.379,376.716,146.212,380.883z M202.67,309.341c-23.525,0-42.667-19.142-42.667-42.667
			c0-23.525,19.142-42.667,42.667-42.667s42.667,19.142,42.667,42.667C245.337,290.2,226.195,309.341,202.67,309.341z"/>
	</g>
</g>
<g>
</g>
<g>
</g>
<g>
</g>
<g>
</g>
<g>
</g>
<g>
</g>
<g>
</g>
<g>
</g>
<g>
</g>
<g>
</g>
<g>
</g>
<g>
</g>
<g>
</g>
<g>
</g>
<g>
</g>
</svg>
