<svg id="Capa_1" enable-background="new 0 0 512 512" height="512" viewBox="0 0 512 512" width="512" xmlns="http://www.w3.org/2000/svg"><g><path d="m391 242.72v-60.72h15c8.28 0 15-6.72 15-15s-6.72-15-15-15h-15v-64.58c17.46-6.18 30-22.87 30-42.42v-30c0-8.28-6.72-15-15-15h-60c-8.28 0-15 6.72-15 15v30c0 19.55 12.54 36.24 30 42.42v64.58h-15c-8.28 0-15 6.72-15 15s6.72 15 15 15h15v60h-90v-60h15c8.28 0 15-6.72 15-15s-6.72-15-15-15h-15v-64.58c17.46-6.18 30-22.87 30-42.42v-30c0-8.28-6.72-15-15-15h-60c-8.28 0-15 6.72-15 15v30c0 19.55 12.54 36.24 30 42.42v64.58h-15c-8.28 0-15 6.72-15 15s6.72 15 15 15h15v60h-90v-60h15c8.28 0 15-6.72 15-15s-6.72-15-15-15h-15v-64.58c17.46-6.18 30-22.87 30-42.42v-30c0-8.28-6.72-15-15-15h-60c-8.28 0-15 6.72-15 15v30c0 19.55 12.54 36.24 30 42.42v64.58h-15c-8.28 0-15 6.72-15 15s6.72 15 15 15h15v60.94c-51.3 6.85-91 50.91-91 104.06v45h-15c-8.28 0-15 6.72-15 15s6.72 15 15 15h120c8.28 0 15-6.72 15-15s-6.72-15-15-15h-15v-35.92c0-13.28 10.8-24.08 24.08-24.08 8.07 0 15.57 4.01 20.04 10.72.04.06.07.11.11.16l74.72 109.09c25.1 37.59 67.06 60.03 112.27 60.03h25.78c74.44 0 135-60.56 135-135 0-69.71-53.11-127.25-121-134.28z"/><path d="m30 497c0 8.28 6.72 15 15 15h60c8.28 0 15-6.72 15-15v-45.468h-90z"/></g></svg>