<?xml version="1.0" encoding="iso-8859-1"?>
<!-- Generator: Adobe Illustrator 19.0.0, SVG Export Plug-In . SVG Version: 6.00 Build 0)  -->
<svg version="1.1" id="Layer_1" xmlns="http://www.w3.org/2000/svg" xmlns:xlink="http://www.w3.org/1999/xlink" x="0px" y="0px"
	 viewBox="0 0 469.333 469.333" style="enable-background:new 0 0 469.333 469.333;" xml:space="preserve">
<g>
	<g>
		<path d="M466.209,35.139l-32-31.999c-3.417-3.427-8.708-4.125-12.833-1.719l-74.667,42.665c-3.333,1.896-5.375,5.437-5.375,9.26
			v16.916l-98.046,98.042c-18.579-10.392-39.596-16.829-61.954-18.421v-11.207c0-5.896-4.771-10.666-10.667-10.666
			c-5.896,0-10.667,4.771-10.667,10.666v11.207c-33.147,2.361-63.294,15.524-86.979,36.069l-7.958-7.954
			c-4.167-4.167-10.917-4.167-15.083,0c-4.167,4.167-4.167,10.916,0,15.083l7.958,7.954c-20.54,23.682-33.703,53.826-36.064,86.97
			H10.667C4.771,288.006,0,292.777,0,298.672s4.771,10.666,10.667,10.666h11.207c2.361,33.143,15.523,63.288,36.064,86.97
			l-7.958,7.954c-4.167,4.167-4.167,10.916,0,15.083c2.083,2.083,4.813,3.125,7.542,3.125s5.458-1.042,7.542-3.125l7.958-7.954
			C96.706,431.936,126.853,445.1,160,447.46v11.207c0,5.896,4.771,10.666,10.667,10.666c5.896,0,10.667-4.771,10.667-10.666V447.46
			c33.147-2.361,63.294-15.524,86.979-36.069l7.958,7.954c2.083,2.083,4.813,3.125,7.542,3.125c2.729,0,5.458-1.042,7.542-3.125
			c4.167-4.167,4.167-10.916,0-15.083l-7.958-7.954c20.54-23.682,33.703-53.826,36.064-86.97h11.207
			c5.896,0,10.667-4.771,10.667-10.666s-4.771-10.666-10.667-10.666H319.46c-1.592-22.357-8.03-43.374-18.422-61.952l98.046-98.042
			H416c3.833,0,7.354-2.052,9.271-5.375l42.667-74.664C470.313,43.795,469.604,38.535,466.209,35.139z M160,171.217v21.87
			c-21.345,2.16-40.693,10.479-56.454,23.376l-15.447-15.438C107.856,184.294,132.718,173.484,160,171.217z M73.016,216.107
			l15.445,15.438c-12.9,15.765-21.221,35.112-23.383,56.46H43.207C45.474,260.724,56.285,235.863,73.016,216.107z M73.016,381.237
			c-16.73-19.756-27.542-44.617-29.809-71.899h21.871c2.161,21.348,10.483,40.695,23.383,56.46L73.016,381.237z M160,426.128
			c-27.283-2.267-52.145-13.078-71.901-29.808l15.447-15.438c15.762,12.897,35.109,21.215,56.454,23.376V426.128z M167.542,338.213
			c-2.083,2.083-4.813,3.125-7.542,3.125c-2.729,0-5.458-1.042-7.542-3.125l-21.333-21.333c-4.167-4.167-4.167-10.916,0-15.083
			c4.167-4.167,10.917-4.167,15.083,0l21.333,21.333C171.708,327.296,171.708,334.046,167.542,338.213z M181.333,171.217
			c27.283,2.266,52.143,13.076,71.9,29.806l-15.445,15.44c-15.762-12.895-35.109-21.215-56.454-23.376V171.217z M181.333,426.128
			v-21.87c21.345-2.16,40.693-10.479,56.454-23.376l15.447,15.438C233.478,413.05,208.616,423.861,181.333,426.128z
			 M268.318,381.237l-15.445-15.438c12.9-15.765,21.221-35.112,23.383-56.46h21.871C295.86,336.62,285.048,361.481,268.318,381.237z
			 M276.255,288.006c-2.161-21.348-10.484-40.698-23.384-56.462l15.445-15.438c16.732,19.756,27.543,44.617,29.81,71.9H276.255z"/>
	</g>
</g>
<g>
</g>
<g>
</g>
<g>
</g>
<g>
</g>
<g>
</g>
<g>
</g>
<g>
</g>
<g>
</g>
<g>
</g>
<g>
</g>
<g>
</g>
<g>
</g>
<g>
</g>
<g>
</g>
<g>
</g>
</svg>
