<?xml version="1.0" encoding="iso-8859-1"?>
<!-- Generator: Adobe Illustrator 19.0.0, SVG Export Plug-In . SVG Version: 6.00 Build 0)  -->
<svg version="1.1" id="Layer_1" xmlns="http://www.w3.org/2000/svg" xmlns:xlink="http://www.w3.org/1999/xlink" x="0px" y="0px"
	 viewBox="0 0 512 512" style="enable-background:new 0 0 512 512;" xml:space="preserve">
<g>
	<g>
		<path d="M287.289,0v182.044h-22.756V168.77c0-25.095-20.416-45.511-45.511-45.511c-23.816,0-43.406,18.393-45.34,41.719h-0.171
			c0,3.083-2.605,5.689-5.689,5.689h-22.756L122.311,204.8h45.511c20.678,0,37.721-15.845,39.637-36.03h0.185
			c0-6.168,5.21-11.378,11.378-11.378s11.378,5.21,11.378,11.378v42.992l36.502,243.349h20.387V512h102.4V0H287.289z
			 M287.289,360.92l-21.711-144.742h21.711V360.92z M355.556,477.867h-34.133v-22.756h34.133V477.867z M338.489,403.911
			c-9.425,0-17.067-7.641-17.067-17.067c0-9.425,7.641-17.067,17.067-17.067s17.067,7.641,17.067,17.067
			C355.556,396.27,347.914,403.911,338.489,403.911z M338.489,347.022c-9.425,0-17.067-7.641-17.067-17.067
			s7.641-17.067,17.067-17.067s17.067,7.641,17.067,17.067S347.914,347.022,338.489,347.022z M338.489,290.133
			c-9.425,0-17.067-7.641-17.067-17.067S329.064,256,338.489,256s17.067,7.641,17.067,17.067S347.914,290.133,338.489,290.133z
			 M338.489,233.244c-9.425,0-17.067-7.641-17.067-17.067s7.641-17.067,17.067-17.067s17.067,7.641,17.067,17.067
			S347.914,233.244,338.489,233.244z M355.556,56.889h-34.133V34.133h34.133V56.889z"/>
	</g>
</g>
<g>
</g>
<g>
</g>
<g>
</g>
<g>
</g>
<g>
</g>
<g>
</g>
<g>
</g>
<g>
</g>
<g>
</g>
<g>
</g>
<g>
</g>
<g>
</g>
<g>
</g>
<g>
</g>
<g>
</g>
</svg>
