<svg id="Capa_1" enable-background="new 0 0 512 512" height="512" viewBox="0 0 512 512" width="512" xmlns="http://www.w3.org/2000/svg"><g><path d="m90 482h-30v-243.58c17.459-6.192 30-22.864 30-42.42 0-14.688-7.074-27.752-17.992-35.97l46.024-69.03h91.968v-15c0-24.853-20.147-46-45-46h-45v-30h-30v30h-45c-24.853 0-45 21.147-45 46v15h81.976l-40.082 60.119c-23.37 1.603-41.894 21.112-41.894 44.881 0 19.556 12.541 36.228 30 42.42v243.58h-30v30h90z"/><path d="m175.605 507.605 36.478-36.478c12.757 6.934 28.377 10.873 43.917 10.873s31.16-3.939 43.917-10.872l36.478 36.478 21.211-21.211-33.936-33.936c14.496-15.977 23.33-38.186 23.33-61.459 0-49.706-41.294-90-91-90s-91 40.294-91 90c0 23.273 8.834 45.482 23.331 61.458l-33.936 33.936z"/><path d="m241 241v-60h-121v60h30v30h-60v151h49.261c-2.507-9.646-4.261-20.581-4.261-31 0-66.167 54.833-120 121-120h-76v-30z"/><path d="m467 30h-45v-30h-30v30h-45c-24.853 0-45 21.147-45 46v15h91.968l46.023 69.03c-10.917 8.218-17.991 21.282-17.991 35.97 0 19.556 12.541 36.228 30 42.42v243.58h-30v30h90v-30h-30v-243.58c17.459-6.192 30-22.864 30-42.42 0-23.769-18.524-43.278-41.894-44.881l-40.082-60.119h81.976v-15c0-24.853-20.147-46-45-46z"/><path d="m377 391c0 10.419-1.754 21.354-4.261 31h49.261v-151h-60v-30h30v-60h-121v60h61v30h-76c66.167 0 121 53.833 121 120z"/></g></svg>