<?xml version="1.0" encoding="iso-8859-1"?>
<!-- Generator: Adobe Illustrator 19.0.0, SVG Export Plug-In . SVG Version: 6.00 Build 0)  -->
<svg version="1.1" id="Layer_1" xmlns="http://www.w3.org/2000/svg" xmlns:xlink="http://www.w3.org/1999/xlink" x="0px" y="0px"
	 viewBox="0 0 469.341 469.341" style="enable-background:new 0 0 469.341 469.341;" xml:space="preserve">
<g>
	<g>
		<path d="M466.212,35.133l-32-32c-3.406-3.417-8.677-4.115-12.833-1.719l-74.667,42.667c-3.323,1.896-5.375,5.438-5.375,9.26
			v16.917l-69.75,69.75c-1.135-1.667-2.271-3.51-3.458-5.469c-7.177-11.76-17.01-27.865-44.125-27.865
			c-50.792,0-63.031,38.042-71.969,65.813c-8.635,26.844-14.094,40.844-34.698,40.854c-56.719,0-117.229,6.594-117.333,85.323
			c-0.052,39.052,19.823,81.365,54.51,116.104c34.646,34.677,76.865,54.573,115.844,54.573h0.135
			c78.906-0.104,85.51-60.615,85.51-117.333c0-26.021,9.635-32,51.542-32c45.063,0,76.458-33.729,76.458-64
			c0-15.063-9.667-22.708-28.719-22.708c-4.208,0-9.042,0.281-14.406,0.594c-6.229,0.365-13.24,0.781-20.875,0.781
			c-7.365,0-13.969-3.76-17.802-9.781l96.885-96.885h16.917c3.823,0,7.365-2.052,9.26-5.375l42.667-74.667
			C470.316,43.789,469.618,38.529,466.212,35.133z M152.462,280.466c4.167-4.167,10.917-4.167,15.083,0l21.333,21.333
			c4.167,4.167,4.167,10.917,0,15.083c-2.083,2.083-4.813,3.125-7.542,3.125c-2.729,0-5.458-1.042-7.542-3.125l-21.333-21.333
			C148.295,291.383,148.295,284.633,152.462,280.466z M138.67,426.674c-5.891,0-10.667-4.776-10.667-10.667
			c0-5.892,4.776-10.667,10.667-10.667s10.667,4.775,10.667,10.667C149.337,421.898,144.561,426.674,138.67,426.674z
			 M160.004,384.008c-5.891,0-10.667-4.776-10.667-10.667c0-5.892,4.776-10.667,10.667-10.667s10.667,4.775,10.667,10.667
			C170.67,379.232,165.894,384.008,160.004,384.008z M181.337,426.674c-5.891,0-10.667-4.776-10.667-10.667
			c0-5.892,4.776-10.667,10.667-10.667s10.667,4.775,10.667,10.667C192.004,421.898,187.228,426.674,181.337,426.674z
			 M202.67,384.008c-5.891,0-10.667-4.776-10.667-10.667c0-5.892,4.776-10.667,10.667-10.667s10.667,4.775,10.667,10.667
			C213.337,379.232,208.561,384.008,202.67,384.008z M210.212,295.549c-2.083,2.083-4.813,3.125-7.542,3.125
			s-5.458-1.042-7.542-3.125l-21.333-21.333c-4.167-4.167-4.167-10.917,0-15.083c4.167-4.167,10.917-4.167,15.083,0l21.333,21.333
			C214.379,284.633,214.379,291.383,210.212,295.549z"/>
	</g>
</g>
<g>
</g>
<g>
</g>
<g>
</g>
<g>
</g>
<g>
</g>
<g>
</g>
<g>
</g>
<g>
</g>
<g>
</g>
<g>
</g>
<g>
</g>
<g>
</g>
<g>
</g>
<g>
</g>
<g>
</g>
</svg>
