<svg id="Capa_1" enable-background="new 0 0 512 512" height="512" viewBox="0 0 512 512" width="512" xmlns="http://www.w3.org/2000/svg"><g><path d="m193.802 424.264c11.694-11.694 30.732-11.694 42.426 0l21.213-21.213-148.492-148.493-21.213 21.213c11.694 11.694 11.694 30.732 0 42.426l-66.523 66.523 106.066 106.066z"/><path d="m27.426 424.574h30v90h-30z" transform="matrix(.707 -.707 .707 .707 -319.612 167.535)"/><path d="m342.294 21.213c11.694 11.694 11.694 30.732 0 42.426l-190.919 190.919 106.066 106.066 190.919-190.918c11.694-11.694 30.732-11.694 42.427 0l21.213-21.214-148.492-148.492zm-84.852 254.559-21.213-21.213 21.213-21.213 21.213 21.213zm42.426-42.427-21.213-21.213 21.213-21.213 21.213 21.213zm42.426-42.426-21.213-21.213 21.213-21.213 21.213 21.213zm63.64-63.64-21.213 21.213-21.213-21.213 21.213-21.213z"/></g></svg>