<?xml version="1.0" encoding="iso-8859-1"?>
<!-- Generator: Adobe Illustrator 18.1.1, SVG Export Plug-In . SVG Version: 6.00 Build 0)  -->
<svg version="1.1" id="Capa_1" xmlns="http://www.w3.org/2000/svg" xmlns:xlink="http://www.w3.org/1999/xlink" x="0px" y="0px"
	 viewBox="0 0 17.86 17.86" style="enable-background:new 0 0 17.86 17.86;" xml:space="preserve">
<g>
	<g>
		<path style="fill:#030104;" d="M12.996,12.562c0-2.838-2.31-5.146-5.146-5.146c-0.171,0-0.341,0.01-0.509,0.026
			C8.642,6.963,11.223,6.418,12.376,7c1.644,0.144-6.96-8.214-6.527-6.849c0.432,1.365-0.418,5.23-0.895,5.89L5.09,6.174
			c-2.124,2.414-2.422,5.231-2.382,6.32c-0.001,0.022-0.004,0.044-0.004,0.068c0,2.836,2.309,5.144,5.146,5.144
			C10.686,17.706,12.996,15.398,12.996,12.562z M6.507,7.555L6.544,7.59C6.515,7.598,6.485,7.604,6.458,7.612
			C6.473,7.594,6.49,7.575,6.507,7.555z M6.856,15.765c-0.203-0.061-0.396-0.146-0.581-0.242c0-0.011,0.006-0.021,0.006-0.033
			v-3.467c0-0.12,0.099-0.22,0.218-0.22h0.134c0.12,0,0.218,0.1,0.218,0.22v3.698C6.852,15.736,6.856,15.75,6.856,15.765z
			 M9.425,15.523c-0.185,0.097-0.379,0.182-0.581,0.242c0-0.015,0.004-0.029,0.004-0.044v-3.698c0-0.12,0.098-0.22,0.218-0.22H9.2
			c0.12,0,0.218,0.1,0.218,0.22v3.467C9.419,15.501,9.424,15.512,9.425,15.523z M10.131,15.014v-2.991
			c0-0.514-0.416-0.933-0.93-0.933H9.067c-0.513,0-0.932,0.419-0.932,0.933v3.698c0,0.081-0.046,0.149-0.112,0.188
			c-0.058,0.004-0.115,0.01-0.173,0.01c-0.059,0-0.115-0.006-0.172-0.01c-0.066-0.038-0.113-0.106-0.113-0.188v-3.698
			c0-0.514-0.418-0.933-0.931-0.933H6.5c-0.514,0-0.932,0.419-0.932,0.933v2.991c-0.659-0.613-1.074-1.484-1.074-2.452
			c0-1.852,1.505-3.356,3.356-3.356c1.852,0,3.354,1.505,3.354,3.356C11.205,13.53,10.791,14.401,10.131,15.014z"/>
		<path style="fill:#030104;" d="M14.783,15.599c-0.207,0-0.373,0.144-0.373,0.319v0.079h-1.636l-1.362,1.31h2.998v0.236
			c0,0.175,0.166,0.317,0.373,0.317c0.205,0,0.373-0.143,0.373-0.317v-1.625C15.156,15.743,14.988,15.599,14.783,15.599z"/>
	</g>
</g>
<g>
</g>
<g>
</g>
<g>
</g>
<g>
</g>
<g>
</g>
<g>
</g>
<g>
</g>
<g>
</g>
<g>
</g>
<g>
</g>
<g>
</g>
<g>
</g>
<g>
</g>
<g>
</g>
<g>
</g>
</svg>
