<svg id="Capa_1" enable-background="new 0 0 512 512" height="512" viewBox="0 0 512 512" width="512" xmlns="http://www.w3.org/2000/svg"><g><path d="m299.155 21.926-277.23 277.23c-25.609 25.609-28.782 65.281-9.533 94.386l381.149-381.149c-29.104-19.25-68.777-16.076-94.386 9.533z"/><path d="m212.845 490.074 277.23-277.23c25.609-25.609 28.782-65.281 9.533-94.386l-381.149 381.149c29.104 19.25 68.777 16.076 94.386-9.533z"/><path d="m332.376 94.295h80.657v90h-80.657z" transform="matrix(.707 -.707 .707 .707 10.666 304.341)"/><path d="m254.13 172.541h80.657v90h-80.657z" transform="matrix(.707 -.707 .707 .707 -67.58 271.93)"/><path d="m410.623 16.049h80.657v90h-80.657z" transform="matrix(.707 -.707 .707 .707 88.912 336.751)"/><path d="m98.035 328.869h80.192v90h-80.192z" transform="matrix(.707 -.707 .707 .707 -223.908 207.177)"/><path d="m20.928 406.451h79.243v90h-79.243z" transform="matrix(.707 -.707 .707 .707 -301.49 175.042)"/><path d="m175.884 250.788h80.657v90h-80.657z" transform="matrix(.707 -.707 .707 .707 -145.826 239.52)"/></g></svg>