<svg id="Layer_1" enable-background="new 0 0 512 512" height="512" viewBox="0 0 512 512" width="512" xmlns="http://www.w3.org/2000/svg"><g><path d="m391.5 225.875c0 8.284-6.716 15-15 15s-15-6.716-15-15v-45.25h-30.25v75.375c0 8.284-6.716 15-15 15s-15-6.716-15-15v-75.375h-30.25v105.5c0 8.284-6.716 15-15 15s-15-6.716-15-15v-105.5h-30.25v75.375c0 8.284-6.716 15-15 15s-15-6.716-15-15v-75.375h-30.25v45.25c0 8.284-6.716 15-15 15s-15-6.716-15-15v-45.25h-60.25v316.375c0 8.284 6.716 15 15 15h361.5c8.284 0 15-6.716 15-15v-316.375h-60.25zm-135.5 225.875c-33.188 0-60.188-27-60.188-60.188s27-60.188 60.188-60.188 60.188 27 60.188 60.188-27 60.188-60.188 60.188z"/><path d="m60.25 120.375h391.5v30.25h-391.5z"/><path d="m120.5 75.25c0-8.284 6.716-15 15-15s15 6.716 15 15v15.125h30.25v-15.125c0-8.284 6.716-15 15-15s15 6.716 15 15v15.125h30.25v-15.125c0-8.284 6.716-15 15-15s15 6.716 15 15v15.125h30.25v-15.125c0-8.284 6.716-15 15-15s15 6.716 15 15v15.125h30.25v-15.125c0-8.284 6.716-15 15-15s15 6.716 15 15v15.125h60.25v-75.375c0-8.284-6.716-15-15-15h-361.5c-8.284 0-15 6.716-15 15v75.375h60.25z"/><circle cx="256" cy="391.563" r="30.188"/></g></svg>