<?xml version="1.0" encoding="iso-8859-1"?>
<!-- Generator: Adobe Illustrator 19.0.0, SVG Export Plug-In . SVG Version: 6.00 Build 0)  -->
<svg version="1.1" id="Capa_1" xmlns="http://www.w3.org/2000/svg" xmlns:xlink="http://www.w3.org/1999/xlink" x="0px" y="0px"
	 viewBox="0 0 415.963 415.963" style="enable-background:new 0 0 415.963 415.963;" xml:space="preserve">
<path d="M328.712,264.539c12.928-21.632,21.504-48.992,23.168-76.064c1.056-17.376-2.816-35.616-11.2-52.768
	c-13.152-26.944-35.744-42.08-57.568-56.704c-16.288-10.912-31.68-21.216-42.56-35.936l-1.952-2.624
	c-6.432-8.64-13.696-18.432-14.848-26.656c-1.152-8.32-8.704-14.24-16.96-13.76c-8.384,0.576-14.88,7.52-14.88,15.936v285.12
	c-13.408-8.128-29.92-13.12-48-13.12c-44.096,0-80,28.704-80,64s35.904,64,80,64s80-28.704,80-64V165.467
	c24.032,9.184,63.36,32.576,74.176,87.2c-2.016,2.976-3.936,6.176-6.176,8.736c-5.856,6.624-5.216,16.736,1.44,22.56
	c6.592,5.888,16.704,5.184,22.56-1.44c4.288-4.864,8.096-10.56,11.744-16.512C328.04,265.563,328.393,265.083,328.712,264.539z"/>
<g>
</g>
<g>
</g>
<g>
</g>
<g>
</g>
<g>
</g>
<g>
</g>
<g>
</g>
<g>
</g>
<g>
</g>
<g>
</g>
<g>
</g>
<g>
</g>
<g>
</g>
<g>
</g>
<g>
</g>
</svg>
