<svg id="Capa_1" enable-background="new 0 0 512 512" height="512" viewBox="0 0 512 512" width="512" xmlns="http://www.w3.org/2000/svg"><g><path d="m346 46h-32.373c-23.247 0-42.949 18.135-44.854 41.294l-.304 3.706h122.531c0-24.814-20.186-45-45-45z"/><path d="m391 163.817v-42.817h-124.993l-.72 8.76c-1.815 12.667-5.464 24.661-9.928 36.24h135.934c-.02-.747-.293-1.432-.293-2.183z"/><path d="m256 466c142.998 0 256-59.297 256-135 0-38.218-29.184-73.213-80.351-98.54-15.097-7.469-26.314-20.77-33.23-36.46h-158.034c-23.123 36.044-59.46 62.466-102.363 71.294-85.796 17.637-138.022 52.661-138.022 93.706 0 68.203 132.382 105 256 105zm150-120c8.284 0 15 6.716 15 15s-6.716 15-15 15-15-6.716-15-15 6.716-15 15-15zm-30-60c8.284 0 15 6.716 15 15s-6.716 15-15 15-15-6.716-15-15 6.716-15 15-15zm-30 90c8.284 0 15 6.716 15 15s-6.716 15-15 15-15-6.716-15-15 6.716-15 15-15zm-30-60c8.284 0 15 6.716 15 15s-6.716 15-15 15-15-6.716-15-15 6.716-15 15-15zm-90-30c8.284 0 15 6.716 15 15s-6.716 15-15 15-15-6.716-15-15 6.716-15 15-15zm-45 45c8.284 0 15 6.716 15 15s-6.716 15-15 15-15-6.716-15-15 6.716-15 15-15zm-75 15c8.284 0 15 6.716 15 15s-6.716 15-15 15-15-6.716-15-15 6.716-15 15-15z"/></g></svg>