<?xml version="1.0" encoding="iso-8859-1"?>
<!-- Generator: Adobe Illustrator 19.0.0, SVG Export Plug-In . SVG Version: 6.00 Build 0)  -->
<svg version="1.1" id="Capa_1" xmlns="http://www.w3.org/2000/svg" xmlns:xlink="http://www.w3.org/1999/xlink" x="0px" y="0px"
	 viewBox="0 0 477.867 477.867" style="enable-background:new 0 0 477.867 477.867;" xml:space="preserve">
<g>
	<g>
		<g>
			<path d="M230.4,247.467v-8.533V136.278v-0.001c-7.3,5.65-16.257,8.736-25.486,8.787c-0.038,0-0.076,0.002-0.114,0.002v0
				c-0.579-0.002-1.158-0.015-1.734-0.041c-8.653-0.382-16.993-3.43-23.866-8.749v0v0.001v102.655v8.533v0.001L230.4,247.467
				L230.4,247.467z M204.8,196.267c4.713,0,8.533,3.82,8.533,8.533v17.066c0,0.884-0.134,1.736-0.384,2.538
				c-0.166,0.534-0.383,1.046-0.646,1.53c-0.131,0.242-0.274,0.477-0.427,0.704c-0.613,0.908-1.397,1.692-2.305,2.305
				c-0.227,0.153-0.462,0.296-0.704,0.427c-1.209,0.657-2.595,1.03-4.068,1.03s-2.858-0.373-4.068-1.03
				c-0.242-0.131-0.477-0.274-0.704-0.427c-0.908-0.613-1.692-1.397-2.305-2.305c-0.153-0.227-0.296-0.462-0.427-0.704
				c-0.263-0.484-0.48-0.996-0.646-1.53c-0.249-0.802-0.384-1.654-0.384-2.538v-17.066
				C196.267,200.088,200.088,196.267,204.8,196.267z"/>
			<path d="M204.8,128.001c14.138,0,25.6-11.462,25.6-25.6c0,0,0,0,0,0c0,0,0,0,0,0c-0.002-0.731-0.042-1.453-0.104-2.168
				c-0.013-0.148-0.02-0.298-0.035-0.446c-0.002-0.016-0.004-0.031-0.006-0.046c-0.065-0.615-0.159-1.221-0.266-1.822
				c-0.096-0.537-0.207-1.07-0.337-1.595c-0.025-0.104-0.046-0.209-0.073-0.312c0-0.001,0-0.001-0.001-0.002
				c-0.171-0.66-0.375-1.307-0.596-1.945c-0.128-0.369-0.264-0.734-0.409-1.095c-0.223-0.559-0.459-1.112-0.719-1.652
				c-0.682-1.411-1.493-2.746-2.411-3.999c-0.052-0.071-0.1-0.144-0.153-0.214c-1.386-1.851-3.02-3.504-4.847-4.921
				c-0.16-0.124-0.32-0.249-0.484-0.37c-1.266-0.935-2.618-1.758-4.047-2.451c-0.01-0.005-0.02-0.01-0.03-0.015
				c-0.864-0.418-1.758-0.782-2.673-1.103c-0.812-0.284-1.642-0.528-2.489-0.731c-0.593-0.142-1.193-0.266-1.801-0.366
				c-0.92-0.151-1.855-0.258-2.806-0.309c-0.436-0.023-0.874-0.036-1.316-0.037V76.8c-14.138,0-25.6,11.461-25.6,25.6c0,0,0,0,0,0
				s0,0,0,0C179.2,116.539,190.662,128.001,204.8,128.001z"/>
			<path d="M136.534,93.867c14.138,0,25.6-11.461,25.6-25.6c-0.042-14.121-11.479-25.558-25.6-25.599v-0.001
				c-14.139,0-25.6,11.461-25.6,25.6S122.395,93.867,136.534,93.867z"/>
			<path d="M366.934,247.467v-8.533V102.144c-7.3,5.65-16.256,8.736-25.485,8.787c-0.038,0-0.077,0.002-0.115,0.002v0
				c-9.269-0.026-18.27-3.116-25.6-8.789v0.001v136.789v8.533v0.001L366.934,247.467L366.934,247.467z M341.334,230.4
				c-4.713,0-8.533-3.821-8.533-8.533v-17.066c0-4.713,3.82-8.533,8.533-8.533s8.533,3.82,8.533,8.533v17.066
				C349.867,226.579,346.046,230.4,341.334,230.4z"/>
			<path d="M341.334,93.867c14.138,0,25.6-11.461,25.6-25.6c0,0,0,0,0,0s0,0,0,0c-0.002-0.763-0.044-1.517-0.112-2.263
				c-0.011-0.117-0.016-0.235-0.028-0.351c-0.007-0.071-0.019-0.141-0.027-0.212c-0.137-1.215-0.354-2.406-0.654-3.563
				c-0.03-0.118-0.068-0.232-0.1-0.349c-0.191-0.695-0.405-1.381-0.651-2.052c-0.061-0.166-0.131-0.328-0.195-0.493
				c-0.087-0.223-0.171-0.448-0.265-0.668c-0.256-0.604-0.541-1.192-0.842-1.771c-0.27-0.521-0.551-1.035-0.855-1.535
				c-0.045-0.074-0.095-0.145-0.141-0.219c-0.267-0.429-0.548-0.848-0.84-1.26c-0.48-0.679-0.993-1.333-1.535-1.961
				c-0.41-0.475-0.832-0.94-1.276-1.383c-0.054-0.054-0.111-0.104-0.165-0.157c-0.584-0.573-1.194-1.119-1.831-1.635
				c-0.42-0.34-0.852-0.665-1.293-0.979c-0.777-0.553-1.583-1.065-2.42-1.531c-0.402-0.223-0.81-0.439-1.225-0.641
				c-0.021-0.01-0.041-0.021-0.061-0.032c-0.864-0.418-1.758-0.782-2.673-1.103c-0.847-0.296-1.713-0.549-2.598-0.756
				c-0.541-0.127-1.088-0.239-1.642-0.331c-0.936-0.156-1.888-0.266-2.856-0.318c-0.436-0.023-0.874-0.036-1.316-0.037v-0.001
				c-14.138,0-25.6,11.461-25.6,25.6c0,0,0,0,0,0s0,0,0,0C315.734,82.406,327.195,93.867,341.334,93.867z"/>
			<path d="M273.067,128.001c14.138,0,25.6-11.462,25.6-25.6c0,0,0,0,0,0c0,0,0,0,0,0c-0.002-0.731-0.042-1.453-0.104-2.168
				c-0.013-0.148-0.02-0.298-0.035-0.446c-0.002-0.016-0.004-0.031-0.006-0.046c-0.065-0.615-0.159-1.221-0.266-1.822
				c-0.096-0.537-0.207-1.07-0.337-1.595c-0.025-0.104-0.046-0.209-0.073-0.312c0-0.001,0-0.001-0.001-0.002
				c-0.171-0.66-0.375-1.307-0.596-1.945c-0.128-0.369-0.264-0.734-0.409-1.095c-0.223-0.559-0.459-1.112-0.719-1.652
				c-0.454-0.939-0.969-1.841-1.529-2.712c-0.329-0.512-0.67-1.015-1.034-1.501c-0.689-0.921-1.442-1.791-2.246-2.61
				c-0.056-0.057-0.109-0.117-0.165-0.173c-0.764-0.764-1.58-1.475-2.435-2.138c-0.16-0.124-0.32-0.249-0.484-0.37
				c-1.266-0.935-2.618-1.758-4.047-2.451c-0.01-0.005-0.02-0.01-0.03-0.015c-0.864-0.418-1.758-0.782-2.673-1.103
				c-0.847-0.296-1.713-0.549-2.598-0.756c-0.541-0.127-1.088-0.239-1.642-0.331c-0.936-0.156-1.888-0.266-2.856-0.318
				c-0.436-0.023-0.874-0.036-1.316-0.037V76.8c-14.138,0-25.6,11.461-25.6,25.6c0,0,0,0,0,0s0,0,0,0
				C247.467,116.539,258.928,128.001,273.067,128.001z"/>
			<path d="M298.667,247.467v-8.533V136.278v-0.001c-7.33,5.673-16.331,8.764-25.6,8.79v-0.001
				c-0.579-0.002-1.158-0.015-1.734-0.041c-8.653-0.382-16.993-3.43-23.866-8.749v0v0.001v102.655v8.533v0.001L298.667,247.467
				L298.667,247.467z M273.067,196.267c4.713,0,8.533,3.82,8.533,8.533v17.066c0,0.884-0.134,1.736-0.384,2.538
				c-0.166,0.534-0.383,1.046-0.646,1.53c-0.131,0.242-0.274,0.477-0.427,0.704c-0.613,0.908-1.397,1.692-2.305,2.305
				c-0.227,0.153-0.462,0.296-0.704,0.427c-1.209,0.657-2.595,1.03-4.068,1.03s-2.858-0.373-4.068-1.03
				c-0.242-0.131-0.477-0.274-0.704-0.427c-0.908-0.613-1.692-1.397-2.305-2.305c-0.153-0.227-0.296-0.462-0.427-0.704
				c-0.263-0.484-0.48-0.996-0.646-1.53c-0.249-0.802-0.384-1.654-0.384-2.538v-17.066
				C264.534,200.088,268.354,196.267,273.067,196.267z"/>
			<path d="M469.334,264.533H460.8c-4.713,0-8.533,3.82-8.533,8.533v0.001v196.266c0,4.713,3.82,8.533,8.533,8.533h8.533
				c4.713,0,8.533-3.82,8.533-8.533V273.067C477.867,268.354,474.046,264.533,469.334,264.533z"/>
			<path d="M426.667,264.534H51.2c-4.713,0-8.533,3.82-8.533,8.533v196.267c0,4.713,3.82,8.533,8.533,8.533h42.667V308.321
				c-0.237-12.469,8.289-23.401,20.441-26.208c13.895-2.811,27.438,6.173,30.249,20.068c0.334,1.653,0.505,3.334,0.51,5.02H332.8
				c0.039-14.176,11.562-25.637,25.739-25.598c1.686,0.005,3.368,0.175,5.02,0.51c12.152,2.807,20.678,13.739,20.441,26.208v169.546
				h42.667c4.713,0,8.533-3.821,8.533-8.533V273.067C435.2,268.354,431.38,264.534,426.667,264.534z"/>
			<path d="M119.467,247.467H153.6c4.713,0,8.533-3.82,8.533-8.533V102.144c-7.33,5.673-16.331,8.764-25.6,8.79v-0.001
				c-9.269-0.026-18.27-3.116-25.6-8.789v136.789C110.934,243.646,114.754,247.467,119.467,247.467z M128,204.8
				c0-4.713,3.821-8.533,8.533-8.533c4.713,0,8.533,3.82,8.533,8.533v17.067c0,4.713-3.821,8.533-8.533,8.533
				c-4.713,0-8.533-3.821-8.533-8.533V204.8z"/>
			<path d="M145.067,324.267V384v0.001h17.067V384v-34.133c0-4.713,3.82-8.533,8.533-8.533s8.533,3.821,8.533,8.533V384v0.001
				h17.067V384v-34.133c0-4.713,3.82-8.533,8.533-8.533s8.533,3.821,8.533,8.533V384v0.001H230.4V384v-34.133
				c0-4.713,3.82-8.533,8.533-8.533s8.533,3.821,8.533,8.533V384v0.001h17.067V384v-34.133c0-4.713,3.82-8.533,8.533-8.533
				s8.533,3.821,8.533,8.533V384v0.001h17.067V384v-34.133c0-4.713,3.82-8.533,8.533-8.533s8.533,3.821,8.533,8.533V384v0.001H332.8
				V384v-59.733v-0.001L145.067,324.267L145.067,324.267z"/>
			<path d="M409.6,0.001L409.6,0.001C395.462,0,384,11.461,384,25.6s11.461,25.6,25.6,25.6s25.6-11.462,25.6-25.6
				C435.159,11.479,423.721,0.042,409.6,0.001z"/>
			<path d="M384,59.478v179.456c0,4.713,3.82,8.533,8.533,8.533h34.133c4.713,0,8.533-3.82,8.533-8.533V59.477
				c-7.33,5.673-16.331,8.764-25.6,8.79C400.331,68.241,391.331,65.151,384,59.478z M418.134,204.801v17.067
				c0,4.713-3.82,8.533-8.533,8.533s-8.533-3.82-8.533-8.533v-17.067c0-4.713,3.82-8.533,8.533-8.533
				S418.134,200.088,418.134,204.801z"/>
			<path d="M358.4,298.667L358.4,298.667c-4.707,0.013-8.519,3.826-8.533,8.533v170.667h17.067V307.2
				C366.919,302.493,363.107,298.681,358.4,298.667z"/>
			<path d="M145.067,477.867h22.101l40.107-40.192c3.332-3.36,8.757-3.383,12.117-0.051c3.36,3.332,3.383,8.757,0.051,12.117
				c-0.017,0.017-0.034,0.034-0.051,0.051l-28.16,28.075H230.4v-17.067c0-4.713,3.82-8.533,8.533-8.533s8.533,3.82,8.533,8.533
				v17.067h39.168l-28.16-28.075c-3.331-3.361-3.308-8.786,0.053-12.117c3.34-3.311,8.724-3.311,12.064,0l40.107,40.192H332.8v-76.8
				H145.067V477.867z"/>
			<path d="M68.267,51.2c14.138,0,25.6-11.462,25.6-25.6c-0.042-14.121-11.479-25.558-25.6-25.599V0
				c-14.138,0-25.6,11.461-25.6,25.6S54.128,51.2,68.267,51.2z"/>
			<path d="M51.2,247.467h34.133c4.713,0,8.533-3.82,8.533-8.533V59.477c-7.33,5.673-16.331,8.764-25.6,8.79
				c-9.269-0.026-18.27-3.116-25.6-8.789v179.456C42.667,243.647,46.487,247.467,51.2,247.467z M59.734,204.801
				c0-4.713,3.82-8.533,8.533-8.533s8.533,3.82,8.533,8.533v17.067c0,4.713-3.821,8.533-8.533,8.533s-8.533-3.82-8.533-8.533
				V204.801z"/>
			<path d="M119.467,298.667L119.467,298.667c-4.707,0.013-8.519,3.826-8.533,8.533v170.667H128V307.2
				C127.986,302.493,124.174,298.681,119.467,298.667z"/>
			<path d="M17.067,264.533H8.534c-4.713,0-8.533,3.821-8.533,8.533v0.001v196.266c0,4.713,3.82,8.533,8.533,8.533h8.533
				c4.713,0,8.533-3.82,8.533-8.533V273.067C25.6,268.354,21.78,264.533,17.067,264.533z"/>
		</g>
	</g>
</g>
<g>
</g>
<g>
</g>
<g>
</g>
<g>
</g>
<g>
</g>
<g>
</g>
<g>
</g>
<g>
</g>
<g>
</g>
<g>
</g>
<g>
</g>
<g>
</g>
<g>
</g>
<g>
</g>
<g>
</g>
</svg>
