<svg height="464pt" viewBox="0 -80 464 464" width="464pt" xmlns="http://www.w3.org/2000/svg"><path d="m318.496094 70.183594 13.214844-13.214844c2.730468-2.722656 4.289062-6.488281 4.289062-10.34375 0-8.066406-6.558594-14.625-14.625-14.625-3.855469 0-7.621094 1.558594-10.34375 4.28125l-14.046875 14.046875zm0 0"/><path d="m351.785156 100.902344 11.933594-11.933594c2.722656-2.722656 4.28125-6.488281 4.28125-10.34375 0-8.066406-6.558594-14.625-14.625-14.625-3.855469 0-7.621094 1.558594-10.34375 4.28125l-12.765625 12.765625zm0 0"/><path d="m299.71875 24.96875c2.722656-2.722656 4.28125-6.488281 4.28125-10.34375 0-8.066406-6.558594-14.625-14.625-14.625-3.855469 0-7.621094 1.558594-10.34375 4.28125l-15.328125 15.328125 21.511719 19.855469zm0 0"/><path d="m418.335938 162.351562 9.382812-9.382812c2.722656-2.722656 4.28125-6.488281 4.28125-10.34375 0-8.066406-6.558594-14.625-14.625-14.625-3.855469 0-7.621094 1.558594-10.34375 4.28125l-10.207031 10.207031zm0 0"/><path d="m385.054688 131.632812 10.664062-10.664062c2.722656-2.722656 4.28125-6.488281 4.28125-10.34375 0-8.066406-6.558594-14.625-14.625-14.625-3.855469 0-7.621094 1.558594-10.34375 4.28125l-11.496094 11.496094zm0 0"/><path d="m220.382812 62.929688-216.101562 216.101562c-2.722656 2.722656-4.28125 6.488281-4.28125 10.34375 0 8.066406 6.558594 14.625 14.625 14.625 3.855469 0 7.621094-1.558594 10.34375-4.28125l216.925781-216.925781zm0 0"/><path d="m372.28125 231.03125c-2.722656 2.722656-4.28125 6.488281-4.28125 10.34375 0 8.066406 6.558594 14.625 14.625 14.625 3.855469 0 7.621094-1.558594 10.34375-4.28125l15.328125-15.328125-21.511719-19.855469zm0 0"/><path d="m224.222656 44.703125 202.714844 187.121094c10.765625-1.320313 19.359375-9.800781 20.832031-20.519531l-202.714843-187.121094c-10.757813 1.320312-19.351563 9.800781-20.832032 20.519531zm0 0"/><path d="m449.375 160c-3.855469 0-7.621094 1.558594-10.34375 4.28125l-8.925781 8.925781 21.511719 19.855469 8.101562-8.101562c2.722656-2.714844 4.28125-6.480469 4.28125-10.335938 0-8.066406-6.558594-14.625-14.625-14.625zm0 0"/><path d="m353.503906 185.816406-53.214844 53.214844c-2.730468 2.722656-4.289062 6.488281-4.289062 10.34375 0 8.066406 6.558594 14.625 14.625 14.625 3.855469 0 7.621094-1.558594 10.34375-4.28125l54.046875-54.046875zm0 0"/><path d="m253.664062 93.648438-169.382812 169.382812c-2.722656 2.722656-4.28125 6.488281-4.28125 10.34375 0 8.066406 6.558594 14.625 14.625 14.625 3.855469 0 7.621094-1.558594 10.34375-4.28125l170.207031-170.207031zm0 0"/><path d="m286.945312 124.367188-130.664062 130.664062c-2.722656 2.722656-4.28125 6.488281-4.28125 10.34375 0 8.066406 6.558594 14.625 14.625 14.625 3.855469 0 7.621094-1.558594 10.34375-4.28125l131.496094-131.496094zm0 0"/><path d="m320.214844 155.097656-91.933594 91.933594c-2.722656 2.722656-4.28125 6.488281-4.28125 10.34375 0 8.066406 6.558594 14.625 14.625 14.625 3.855469 0 7.621094-1.558594 10.34375-4.28125l92.765625-92.765625zm0 0"/></svg>