<?xml version="1.0" encoding="iso-8859-1"?>
<!-- Generator: Adobe Illustrator 19.0.0, SVG Export Plug-In . SVG Version: 6.00 Build 0)  -->
<svg version="1.1" id="Layer_1" xmlns="http://www.w3.org/2000/svg" xmlns:xlink="http://www.w3.org/1999/xlink" x="0px" y="0px"
	 viewBox="0 0 511.995 511.995" style="enable-background:new 0 0 511.995 511.995;" xml:space="preserve">
<g>
	<g>
		<path d="M241.753,506.866c-0.015,0-0.029,0.001-0.044,0.001h0.133C241.813,506.867,241.783,506.866,241.753,506.866z"/>
	</g>
</g>
<g>
	<g>
		<path d="M406.538,15.796c-21.069-21.069-55.361-21.06-76.442,0.021l-13.764,13.762l-4.945-4.945c-7.2-7.2-18.873-7.2-26.073,0
			s-7.2,18.873,0,26.073l25.77,25.77c5.38,5.38,14.103,5.38,19.484,0l30.095-30.095c4.25-4.25,11.135-4.279,15.349-0.065
			c4.214,4.214,4.184,11.1-0.066,15.349c0,0-17.576,17.136-20.304,19.864l-42.908,39.751l-7.044-7.044
			c-7.262-7.262-19.091-7.93-26.685-1.018c-8.109,7.38-8.331,19.945-0.668,27.608l7.425,7.425l-12.587,12.587l-7.044-7.044
			c-7.262-7.262-19.091-7.93-26.685-1.018c-8.109,7.38-8.331,19.945-0.668,27.608l7.425,7.425l-13.486,13.486l-7.044-7.044
			c-7.262-7.262-19.091-7.93-26.685-1.018c-8.109,7.38-8.331,19.945-0.668,27.608l7.425,7.425l-12.587,12.587l-7.044-7.044
			c-7.262-7.262-19.091-7.93-26.685-1.018c-8.109,7.38-8.331,19.945-0.668,27.608l7.425,7.425l-56.38,56.38
			c-42.927,42.927-42.725,112.697,0.157,155.653c42.953,42.916,112.44,42.823,155.38-0.116l1.865-1.865
			c24.557-24.557,56.436-39.591,90.086-43.641c5.651,2.91,10.611,5.497,15.128,7.884c-7.73-45.662-19.115-112.643-25.55-150.572
			c-4.06,1.207-8.133,2.439-12.122,3.801c-1.1,0.248-2.258,0.453-3.419,0.687l0.054,0.399
			c-51.834,18.251-99.084,47.858-138.185,86.816c-7.818,7.79-20.861,8.191-28.556,0.281c-7.501-7.71-7.478-20.002,0.152-27.633
			l232.497-252.761l9.227-10.901C427.597,71.155,427.606,36.864,406.538,15.796z"/>
	</g>
</g>
<g>
	<g>
		<path d="M433.956,431.055l-23.282-136.536c-2.134-12.435-14.386-21.012-26.166-18.223l0.003-0.003
			c-3.994,0.398-7.328,1.966-11.12,3.923c0.718,1.807,1.177,3.619,1.515,5.589l29.391,170.931c3.951,1.056,7.867,0.745,11.109,0.391
			l0.052,0.051C427.799,455.137,436.09,443.49,433.956,431.055z"/>
	</g>
</g>
<g>
</g>
<g>
</g>
<g>
</g>
<g>
</g>
<g>
</g>
<g>
</g>
<g>
</g>
<g>
</g>
<g>
</g>
<g>
</g>
<g>
</g>
<g>
</g>
<g>
</g>
<g>
</g>
<g>
</g>
</svg>
