<?xml version="1.0" encoding="iso-8859-1"?>
<!-- Generator: Adobe Illustrator 19.0.0, SVG Export Plug-In . SVG Version: 6.00 Build 0)  -->
<svg version="1.1" id="Capa_1" xmlns="http://www.w3.org/2000/svg" xmlns:xlink="http://www.w3.org/1999/xlink" x="0px" y="0px"
	 viewBox="0 0 512 512" style="enable-background:new 0 0 512 512;" xml:space="preserve">
<g>
	<g>
		<rect x="211" y="210.67" width="120" height="30"/>
	</g>
</g>
<g>
	<g>
		<path d="M437,122H122.763c6.213-17.422,22.707-30,42.237-30h212c59.44,0,59.487-92,0-92H15C-4.773,0-4.854,30,15,30h362
			c19.828,0,19.828,32,0,32H165c-36.216,0-66.513,25.809-73.482,60H75c-41.353,0-75,33.647-75,75v270c0,24.814,20.186,45,45,45h422
			c24.814,0,45-20.186,45-45V197C512,155.647,478.353,122,437,122z M182,197c0-8.291,6.709-15,15-15h150c8.291,0,15,6.709,15,15v60
			c0,8.291-6.709,15-15,15H197c-8.291,0-15-6.709-15-15V197z M135,182c8.284,0,15,6.714,15,15c0,8.284-6.716,15-15,15
			s-15-6.716-15-15C120,188.714,126.716,182,135,182z M75,182c8.284,0,15,6.714,15,15c0,8.284-6.716,15-15,15s-15-6.716-15-15
			C60,188.714,66.716,182,75,182z M75,242h60c19.773,0,19.854,30,0,30H75C55.227,272,55.146,242,75,242z M422,482H90V332h30v105
			c0,19.773,30,19.854,30,0V332h32v105c0,19.773,30,19.854,30,0V332h30v105c0,19.773,30,19.854,30,0V332h30v105
			c0,19.773,30,19.854,30,0V332h30v105c0,19.773,30,19.854,30,0V332h30V482z M437,272h-30c-19.773,0-19.854-30,0-30h30
			C456.773,242,456.854,272,437,272z M437,212h-30c-19.773,0-19.854-30,0-30h30C456.773,182,456.854,212,437,212z"/>
	</g>
</g>
<g>
</g>
<g>
</g>
<g>
</g>
<g>
</g>
<g>
</g>
<g>
</g>
<g>
</g>
<g>
</g>
<g>
</g>
<g>
</g>
<g>
</g>
<g>
</g>
<g>
</g>
<g>
</g>
<g>
</g>
</svg>
