<?xml version="1.0" encoding="iso-8859-1"?>
<!-- Generator: Adobe Illustrator 19.0.0, SVG Export Plug-In . SVG Version: 6.00 Build 0)  -->
<svg version="1.1" id="Capa_1" xmlns="http://www.w3.org/2000/svg" xmlns:xlink="http://www.w3.org/1999/xlink" x="0px" y="0px"
	 viewBox="0 0 512 512" style="enable-background:new 0 0 512 512;" xml:space="preserve">
<g>
	<g>
		<polygon points="380.764,451.952 131.237,451.952 124.291,512 387.709,512 		"/>
	</g>
</g>
<g>
	<g>
		<path d="M364.261,309.286c-30.451,25.098-68.69,38.871-108.261,38.871c-39.571,0-77.81-13.773-108.262-38.871l-13.032,112.667
			h242.587L364.261,309.286z"/>
	</g>
</g>
<g>
	<g>
		<path d="M102.82,90.048l12,90.096h282.36l12-90.096H102.82z M174.307,150.096H137.65v-30h36.657V150.096z M240.989,150.096
			h-36.658v-30h36.658V150.096z M307.669,150.096h-36.656v-30h36.656V150.096z M374.351,150.096h-36.657v-30h36.657V150.096z"/>
	</g>
</g>
<g>
	<g>
		<polygon points="90.826,0 98.824,60.048 413.176,60.048 421.174,0 		"/>
	</g>
</g>
<g>
	<g>
		<path d="M119.523,210.144c6.683,28.314,22.028,53.961,44.092,73.281c25.578,22.397,58.388,34.731,92.385,34.731
			c33.998,0,66.808-12.334,92.386-34.731c22.065-19.32,37.409-44.967,44.092-73.281H119.523z"/>
	</g>
</g>
<g>
</g>
<g>
</g>
<g>
</g>
<g>
</g>
<g>
</g>
<g>
</g>
<g>
</g>
<g>
</g>
<g>
</g>
<g>
</g>
<g>
</g>
<g>
</g>
<g>
</g>
<g>
</g>
<g>
</g>
</svg>
