<svg viewBox="0 -31 512 512" xmlns="http://www.w3.org/2000/svg"><path d="m482 0v38.382812c-54.695312 52.5625-126.195312 81.617188-202.28125 81.617188h-174.71875c-57.890625 0-105 47.109375-105 105s47.109375 105 105 105h75v30h-60v90h167c57.890625 0 105-47.109375 105-105s-47.109375-105-105-105h-15v-30h7.71875c76.085938 0 147.585938 29.054688 202.28125 81.617188v38.382812h30c0-113.472656 0-212.507812 0-330zm-362 240h-15c-8.277344 0-15-6.722656-15-15s6.722656-15 15-15h15zm30 0v-30h92v30zm137 90c8.277344 0 15 6.722656 15 15s-6.722656 15-15 15h-75v-30zm0 0"/><path d="m298.945312 89.0625c-6.460937-16.941406-22.757812-29.0625-41.945312-29.0625-19.53125 0-36.023438 12.578125-42.238281 30h64.957031c6.464844 0 12.847656-.476562 19.226562-.9375zm0 0"/><path d="m30 360h60v90h-60zm0 0"/><path d="m177.238281 90c-6.214843-17.421875-22.707031-30-42.238281-30-20 0-36.789062 13.199219-42.632812 31.277344 4.222656-.398438 8.304687-1.277344 12.632812-1.277344zm0 0"/></svg>