<svg height="512pt" viewBox="0 -113 512 512" width="512pt" xmlns="http://www.w3.org/2000/svg"><path d="m489.339844 0-31.140625 54.988281c-14.289063 25.230469-41.039063 40.820313-70.027344 40.820313h-44.78125v-35.019532h31.597656v-30.910156h-222.519531v30.910156h31.589844v38.492188c-40.230469 11.058594-70.308594 47.328125-70.738282 90.878906-.511718 52.980469 42.429688 96.238282 95.289063 96.238282h82.75c25.390625 0 50.03125-9.589844 68.121094-27.410157 18.121093-17.847656 28.210937-41.699219 28.417969-67.117187l.023437-3.339844h-61.8125l-.019531 2.839844c-.148438 18.308594-15.167969 33.207031-33.480469 33.207031h-84c-18.460937 0-33.480469-15.019531-33.480469-33.476563 0-18.460937 15.019532-33.480468 33.480469-33.480468h179.5625c28.988281 0 55.738281 15.589844 70.027344 40.820312l31.140625 54.988282h22.660156v-253.429688zm-241.070313 95.808594h-33.308593v-35.019532h33.308593zm64.21875 0h-33.308593v-35.019532h33.308593zm0 0"/><path d="m120.539062 101.164062c1.90625-1.851562 3.863282-3.632812 5.863282-5.351562h-95.496094v-38.117188h-30.90625v138.042969h30.90625v-38.117187h56.039062c5.867188-21.207032 17.3125-40.613282 33.59375-56.457032zm0 0"/></svg>