<?xml version="1.0" encoding="iso-8859-1"?>
<!-- Generator: Adobe Illustrator 18.1.1, SVG Export Plug-In . SVG Version: 6.00 Build 0)  -->
<svg version="1.1" id="Capa_1" xmlns="http://www.w3.org/2000/svg" xmlns:xlink="http://www.w3.org/1999/xlink" x="0px" y="0px"
	 viewBox="0 0 25.942 25.942" style="enable-background:new 0 0 25.942 25.942;" xml:space="preserve">
<g>
	<path style="fill:#030104;" d="M22.263,0.008L7.707,0c-0.751,0.008-1.032,0.821,0.09,1.415c1.347,0.827,5.237,4.468,5.206,7.593
		c-0.007,0.656,0,1.328,0,2h-1c0-2.505-1.495-4-4-4c-2.369,0-5,1.632-5,5.85c0,3.102,0,4.882,0,6.15c0,2.636,1.263,6.934,6,6.934
		c5.525,0,8-2.145,8-6.934c0-2.745,0-7.35,0-10c0-3.354,4.438-7.175,5.227-7.593C23.203,0.9,23.134,0.008,22.263,0.008z
		 M13.003,19.008c0,2.579-1.211,4.236-4,4.236c-3.156,0-4-3.383-4-4.236s0-4.777,0-5.895c0-4.158,3-4.105,3-4.105
		c1.402,0,2,0.598,2,2h-1c-2.094,0-2.993,0.961-2.993,2.881l-0.007,0.058l0.002,4.02c0.077,1.052,0.801,3.041,2.998,3.041
		c2.201,0,3-1.861,3-3.113v-4.887h1C13.003,15.572,13.003,17.893,13.003,19.008z M10.003,13.008v4.877
		c-0.009,0.419-0.15,1.123-1,1.123c-1.325,0-1-1.839-1-4.925C8.221,12.819,9,13.008,10.003,13.008z M22.003,11.008v2
		c0,0.553-0.447,1-1,1s-1-0.447-1-1h-2v-2h2c0-0.552,0.447-1,1-1S22.003,10.456,22.003,11.008z"/>
</g>
<g>
</g>
<g>
</g>
<g>
</g>
<g>
</g>
<g>
</g>
<g>
</g>
<g>
</g>
<g>
</g>
<g>
</g>
<g>
</g>
<g>
</g>
<g>
</g>
<g>
</g>
<g>
</g>
<g>
</g>
</svg>
