<?xml version="1.0" encoding="iso-8859-1"?>
<!-- Generator: Adobe Illustrator 19.0.0, SVG Export Plug-In . SVG Version: 6.00 Build 0)  -->
<svg version="1.1" id="Capa_1" xmlns="http://www.w3.org/2000/svg" xmlns:xlink="http://www.w3.org/1999/xlink" x="0px" y="0px"
	 viewBox="0 0 59.521 59.521" style="enable-background:new 0 0 59.521 59.521;" xml:space="preserve">
<g>
	<path d="M59.521,57.796l-6.509-6.509L39.014,37.289l0.108-0.135c3.02-3.883,3.271-9.287,0.712-13.429l10.045-10.044l0.753,0.753
		C50.997,14.799,51.483,15,52,15s1.003-0.201,1.368-0.566l0.088-0.088l1.414,1.414l1.414-1.414l-1.414-1.414l1.414-1.414
		l1.414,1.414l1.414-1.414l-1.704-1.704c0.706-1.786,0.342-3.901-1.101-5.343l-1.461-1.462c-0.938-0.938-2.186-1.454-3.513-1.454
		c-0.638,0-1.255,0.126-1.831,0.354l-1.704-1.704l-1.414,1.414l1.414,1.414l-1.414,1.415l-1.414-1.415l-1.414,1.414l1.414,1.415
		l-0.087,0.087c-0.755,0.755-0.755,1.982,0,2.737l0.752,0.752l-9.988,9.989c-1.922-1.272-4.204-1.967-6.519-1.967
		c-2.639,0-5.137,0.857-7.245,2.498l-0.11,0.091L8.485,6.761L7.021,5.296L5.606,6.71l1.536,1.536
		c-0.538,0.811-0.829,1.761-0.829,2.757c0,1.336,0.521,2.592,1.474,3.544l10.097,9.842c0.697,1.85-0.045,4.36-1.859,6.176
		c-1.35,1.35-3.056,2.123-4.681,2.123c-0.989,0.001-1.858-0.296-2.514-0.858l-0.639-0.548l-3.641,3.012
		c-2.668,2.075-4.318,5.2-4.528,8.573c-0.162,2.622,0.566,5.197,2.018,7.34l5.132-5.132l7.07,7.071l-5.139,5.138
		c1.936,1.319,4.218,2.033,6.61,2.033c3.668,0,7.062-1.659,9.302-4.54l2.962-3.698l-0.522-0.628
		c-1.492-1.794-0.922-4.938,1.298-7.158c1.349-1.349,3.055-2.122,4.681-2.122c0.452,0,0.876,0.072,1.273,0.194
		c0.309,0.341,0.761,0.8,1.455,1.499l9.074,9.131c0.943,0.944,2.199,1.465,3.535,1.465c0.996,0,1.946-0.291,2.757-0.829l6.58,6.58
		L59.521,57.796z M8.313,11.003c0-0.455,0.101-0.896,0.292-1.294l11.619,11.619l-0.693,0.573l-0.722,0.597l-9.617-9.375
		C8.626,12.558,8.313,11.805,8.313,11.003z M13.441,40.827c-0.585,0.585-1.353,0.877-2.121,0.877s-1.536-0.292-2.121-0.877
		c-0.391-0.391-0.391-1.023,0-1.414s1.023-0.391,1.414,0s1.023,0.391,1.414,0l4.243-4.242c1.13-1.132,3.108-1.134,4.242,0
		c0.391,0.391,0.391,1.023,0,1.414s-1.023,0.391-1.414,0c-0.38-0.377-1.037-0.379-1.413,0L13.441,40.827z M24.048,42.949
		l-4.242,4.242c-0.188,0.189-0.293,0.44-0.293,0.707c0,0.268,0.104,0.519,0.293,0.706c0.391,0.391,0.391,1.023,0.001,1.415
		c-0.195,0.195-0.452,0.293-0.708,0.293s-0.512-0.098-0.707-0.292c-0.566-0.566-0.879-1.32-0.879-2.122
		c0-0.801,0.313-1.555,0.879-2.121l4.242-4.242c0.39-0.391,0.39-1.024,0-1.415c-0.391-0.391-0.391-1.023,0-1.414
		s1.023-0.391,1.414,0C25.218,39.876,25.218,41.779,24.048,42.949z M46.65,50.582c-2.443-2.456-8.236-8.281-10.121-10.188l0.32-0.4
		l0.907-1.133l12.307,12.307C48.963,51.695,47.535,51.467,46.65,50.582z"/>
	<path d="M7.172,47.902l-3.864,3.864c-0.921,0.921-1.105,2.291-0.577,3.405l-2.438,2.438c-0.391,0.391-0.391,1.023,0,1.414
		C0.488,59.219,0.744,59.316,1,59.316s0.512-0.098,0.707-0.293l2.436-2.436c0.398,0.19,0.832,0.3,1.286,0.3
		c0.802,0,1.556-0.313,2.121-0.879l3.864-3.863L7.172,47.902z"/>
</g>
<g>
</g>
<g>
</g>
<g>
</g>
<g>
</g>
<g>
</g>
<g>
</g>
<g>
</g>
<g>
</g>
<g>
</g>
<g>
</g>
<g>
</g>
<g>
</g>
<g>
</g>
<g>
</g>
<g>
</g>
</svg>
