<?xml version="1.0" encoding="iso-8859-1"?>
<!-- Generator: Adobe Illustrator 19.0.0, SVG Export Plug-In . SVG Version: 6.00 Build 0)  -->
<svg version="1.1" id="Capa_1" xmlns="http://www.w3.org/2000/svg" xmlns:xlink="http://www.w3.org/1999/xlink" x="0px" y="0px"
	 viewBox="0 0 512 512" style="enable-background:new 0 0 512 512;" xml:space="preserve">
<g>
	<g>
		<path d="M496,176h-96c-4.256,0-8.32,1.696-11.328,4.672L361.376,208H320v-16c0-8.832-7.168-16-16-16H160
			C71.776,176,0,247.776,0,336s71.776,160,160,160c79.232,0,145.536-57.056,158.016-134.272l184-74.912
			c6.048-2.464,9.984-8.32,9.984-14.816v-80C512,183.168,504.832,176,496,176z M160,416c-44.192,0-80-35.808-80-80s35.808-80,80-80
			s80,35.808,80,80C240,380.192,204.192,416,160,416z"/>
	</g>
</g>
<g>
	<g>
		<path d="M352,16c-8.832,0-16,7.168-16,16v96c0,8.832,7.168,16,16,16c8.832,0,16-7.168,16-16V32C368,23.168,360.832,16,352,16z"/>
	</g>
</g>
<g>
	<g>
		<path d="M300.8,118.4l-48-64c-5.312-7.104-15.36-8.512-22.4-3.2c-7.072,5.312-8.512,15.328-3.2,22.4l48,64
			c3.136,4.192,7.936,6.4,12.8,6.4c3.328,0,6.72-1.056,9.6-3.2C304.672,135.488,306.08,125.472,300.8,118.4z"/>
	</g>
</g>
<g>
	<g>
		<path d="M473.568,51.2c-7.04-5.248-17.056-3.904-22.4,3.2l-48,64c-5.28,7.072-3.84,17.088,3.232,22.4
			c2.88,2.144,6.272,3.2,9.6,3.2c4.832,0,9.664-2.208,12.8-6.4l48-64C482.08,66.528,480.64,56.512,473.568,51.2z"/>
	</g>
</g>
<g>
</g>
<g>
</g>
<g>
</g>
<g>
</g>
<g>
</g>
<g>
</g>
<g>
</g>
<g>
</g>
<g>
</g>
<g>
</g>
<g>
</g>
<g>
</g>
<g>
</g>
<g>
</g>
<g>
</g>
</svg>
