<?xml version="1.0" encoding="iso-8859-1"?>
<!-- Generator: Adobe Illustrator 19.0.0, SVG Export Plug-In . SVG Version: 6.00 Build 0)  -->
<svg version="1.1" id="Capa_1" xmlns="http://www.w3.org/2000/svg" xmlns:xlink="http://www.w3.org/1999/xlink" x="0px" y="0px"
	 viewBox="0 0 480 480" style="enable-background:new 0 0 480 480;" xml:space="preserve">
<path d="M464,80h-48V32c0-8.832-7.168-16-16-16h-64c-8.832,0-16,7.168-16,16v48h-32V32c0-8.832-7.168-16-16-16h-64
	c-8.832,0-16,7.168-16,16v48h-32V32c0-8.832-7.168-16-16-16H80c-8.832,0-16,7.168-16,16v48H16C7.168,80,0,87.168,0,96v32
	c0,8.832,7.168,16,16,16h48v304c0,8.832,7.168,16,16,16h64c8.832,0,16-7.168,16-16V144h32v208c0,8.832,7.168,16,16,16h64
	c8.832,0,16-7.168,16-16V144h32v112c0,8.832,7.168,16,16,16h64c8.832,0,16-7.168,16-16V144h48c8.832,0,16-7.168,16-16V96
	C480,87.168,472.832,80,464,80z"/>
<g>
</g>
<g>
</g>
<g>
</g>
<g>
</g>
<g>
</g>
<g>
</g>
<g>
</g>
<g>
</g>
<g>
</g>
<g>
</g>
<g>
</g>
<g>
</g>
<g>
</g>
<g>
</g>
<g>
</g>
</svg>
